{"title":"Bucky Larson Born To Be A Star 2011 BRRip XviD Ac3 Feel-Free","uid":6936907,"size":1393835935,"categoryP":"video","categoryS":"movies","magnet":"?xt=urn:btih:33298091a3492fd3c9ba477c4c24ea92ccd03a8f&amp;dn=Bucky+Larson+Born+To+Be+A+Star+2011+BRRip+XviD+Ac3+Feel-Free&amp;tr=udp%3A%2F%2Ftracker.openbittorrent.com%3A80&amp;tr=udp%3A%2F%2Fopen.demonii.com%3A1337&amp;tr=udp%3A%2F%2Ftracker.coppersurfer.tk%3A6969&amp;tr=udp%3A%2F%2Fexodus.desync.com%3A6969","seeders":0,"leechers":1,"uploader":"rcbcsk","files":-1,"time":1325859106,"description":"::::::: pitic Presents ::::::::\n\nBucky Larson Born To Be A Star 2011 BRRip XviD Ac3 Feel-Free\n\nInfo\n\n\nGenre: Comedy\nLanguage:English\nIMDb:http://www.imdb.com/title/tt1411664/\nSource:1080p.BluRay.x264.ALLiANCE Thanks!\n\nFormat : AVI\nFormat/Info : Audio Video Interleave\nFile size : 1.30 GiB\nDuration : 1h 36mn\nOverall bit rate : 1 918 Kbps\n\n\nVideo\nID : 0\nFormat : MPEG-4 Visual\nFormat profile : Advanced Simple@L5\nFormat settings, BVOP : Yes\nFormat settings, QPel : No\nFormat settings, GMC : No warppoints\nFormat settings, Matrix : Default (H.263)\nCodec ID : XVID\nCodec ID/Hint : XviD\nDuration : 1h 36mn\nBit rate : 1 461 Kbps\nWidth : 640 pixels\nHeight : 352 pixels\nDisplay aspect ratio : 16:9\nFrame rate : 23.976 fps\nColor space : YUV\nChroma subsampling : 4:2:0\nBit depth : 8 bits\nScan type : Progressive\nBits/(Pixel*Frame) : 0.270\nStream size : 1 011 MiB (76%)\nWriting library : XviD 1.2.1 (UTC 2008-12-04)\n\nAudio\nID : 1\nFormat : AC-3\nFormat/Info : Audio Coding 3\nMode extension : CM (complete main)\nCodec ID : 2000\nDuration : 1h 36mn\nBit rate mode : Constant\nBit rate : 448 Kbps\nChannel(s) : 6 channels\nChannel positions : Front: L C R, Side: L R, LFE\nSampling rate : 48.0 KHz\nBit depth : 16 bits\nStream size : 310 MiB (23%)\nAlignment : Split accross interleaves\nInterleave, duration : 42 ms (1.00 video frame)\nInterleave, preload duration : 500 ms\n\n\nPlot:\nA kid from the Midwest moves out to Hollywood in order to follow in his parents footsteps -- and become a porn star\n\n","torrent":{"xt":"urn:btih:33298091a3492fd3c9ba477c4c24ea92ccd03a8f","amp;dn":"Bucky+Larson+Born+To+Be+A+Star+2011+BRRip+XviD+Ac3+Feel-Free","amp;tr":["udp%3A%2F%2Ftracker.openbittorrent.com%3A80","udp%3A%2F%2Fopen.demonii.com%3A1337","udp%3A%2F%2Ftracker.coppersurfer.tk%3A6969","udp%3A%2F%2Fexodus.desync.com%3A6969"],"infoHash":"33298091a3492fd3c9ba477c4c24ea92ccd03a8f","infoHashBuffer":{"type":"Buffer","data":[51,41,128,145,163,73,47,211,201,186,71,124,76,36,234,146,204,208,58,143]},"announce":[],"urlList":[]}}